# xmcd
#
# Track frame offsets: 
#        150
#        15550
#        29850
#        48450
#        60975
#        77100
#        92962
#        108975
#        130725
#        145312
#
# Disc length: 2158 seconds
#
# Revision: 7
# Processed by: cddbd v1.5.2PL0 Copyright (c) Steve Scherf et al.
# Submitted via: ExactAudioCopyFreeDBPlugin 1.0
#
DISCID=85086c0a
DTITLE=Various Artist - Swing is the Thing (Rounder EasyDisc)
DYEAR=1999
DGENRE=Blues
TTITLE0=Clarence "Gatemouth" Brown - Information Blues
TTITLE1=Michelle "Evil Gal" Willson - As Long as I'm Movin'
TTITLE2=Tri-Sax-ual Soul Champs - Cherry Race
TTITLE3=Johnny Nocturne Band - Reelin' and Rockin'
TTITLE4=U.P. Wilson - Shakin' Dem Bones
TTITLE5=Roomful of Blues - P.D.Q. Boogie (ft Porky Cohen)
TTITLE6=Roy Gaines - Jump in My Cadillac
TTITLE7=Joe Houston and Otis Grand - Fruit Boots
TTITLE8=James "Thunderbird" Davis - Bloodshot Eyes
TTITLE9=Gene "Mighty Flea" Conners - Biscuits
EXTD=
EXTT0=
EXTT1=
EXTT2=
EXTT3=
EXTT4=
EXTT5=
EXTT6=
EXTT7=
EXTT8=
EXTT9=
PLAYORDER=
